<?xml version="1.0" encoding="utf-8"?>
<!-- Generator: Adobe Illustrator 27.2.0, SVG Export Plug-In . SVG Version: 6.00 Build 0)  -->
<svg version="1.1" id="Layer_1" xmlns="http://www.w3.org/2000/svg" xmlns:xlink="http://www.w3.org/1999/xlink" x="0px" y="0px"
	 viewBox="0 0 800 800" style="enable-background:new 0 0 800 800;" xml:space="preserve">
<rect x="600" y="300" transform="matrix(6.123234e-17 -1 1 6.123234e-17 299.9996 1099.9995)" width="200" height="200"/>
<rect x="600" y="0" transform="matrix(6.123234e-17 -1 1 6.123234e-17 599.9994 799.9997)" width="200" height="200"/>
<rect x="0" y="300" transform="matrix(6.123234e-17 -1 1 6.123234e-17 -300 499.9999)" width="200" height="200"/>
<rect x="300" y="300" transform="matrix(6.123234e-17 -1 1 6.123234e-17 -2.379048e-04 799.9997)" width="200" height="200"/>
<rect x="300" y="0" transform="matrix(6.123234e-17 -1 1 6.123234e-17 299.9996 499.9999)" width="200" height="200"/>
<rect x="0" y="0" transform="matrix(6.123234e-17 -1 1 6.123234e-17 -2.379048e-04 200.0001)" width="200" height="200"/>
<rect x="300" y="600" transform="matrix(6.123234e-17 -1 1 6.123234e-17 -300 1099.9995)" width="200" height="200"/>
<rect x="0" y="600" transform="matrix(6.123234e-17 -1 1 6.123234e-17 -599.9998 799.9997)" width="200" height="200"/>
</svg>
